<svg xmlns="http://www.w3.org/2000/svg" version="1.1" xmlns:xlink="http://www.w3.org/1999/xlink" xmlns:svgjs="http://svgjs.dev/svgjs" width="1000" height="383" viewBox="0 0 1000 383"><g transform="matrix(1,0,0,1,-0.6060606060605096,-0.6126902308799629)"><svg viewBox="0 0 396 152" data-background-color="#ffffff" preserveAspectRatio="xMidYMid meet" height="383" width="1000" xmlns="http://www.w3.org/2000/svg" xmlns:xlink="http://www.w3.org/1999/xlink"><g id="tight-bounds" transform="matrix(1,0,0,1,0.23999999999995225,0.2431564362761236)"><svg viewBox="0 0 395.52 151.51368712744775" height="151.51368712744775" width="395.52"><g><svg viewBox="0 0 629.5033937268383 241.1467947077132" height="151.51368712744775" width="395.52"><g><rect width="10.935090293225223" height="175.3636242266655" x="424.1458908199613" y="32.89158524052385" fill="#4a596d" opacity="1" stroke-width="0" stroke="transparent" fill-opacity="1" class="rect-r$-0" data-fill-palette-color="primary" rx="1%" id="r$-0" data-palette-color="#4a596d"></rect></g><g transform="matrix(1,0,0,1,0,33.32781316148569)"><svg viewBox="0 0 395.52 174.49116838474183" height="174.49116838474183" width="395.52"><g id="textblocktransform"><svg viewBox="0 0 395.52 174.49116838474183" height="174.49116838474183" width="395.52" id="textblock"><g><svg viewBox="0 0 395.52 121.2570986460348" height="121.2570986460348" width="395.52"><g transform="matrix(1,0,0,1,0,0)"><svg width="395.52" viewBox="1 -38 159.49 47.55" height="121.2570986460348" data-palette-color="#4a596d"><g class="wordmark-text-0" data-fill-palette-color="primary" id="text-0"><path d="M3.2-35.9Q3.85-35.9 7.28-35.7 10.7-35.5 20.75-35.5 30.8-35.5 32.9-35.8L32.9-35.8Q33.45-35.8 33.65-35.5 33.85-35.2 33.85-34.95L33.85-34.95 34.15-30.9Q34.15-29.65 34-29.33 33.85-29 33.35-29L33.35-29Q32.95-29 32.68-30.03 32.4-31.05 32.1-31.6L32.1-31.6Q31.35-32.9 27.75-32.9L27.75-32.9 21.25-32.9Q20.05-32.9 19.78-32.43 19.5-31.95 19.5-29.7L19.5-29.7 19.5-27.25 19.35-8.95 19.3-5.7Q19.3-3.55 19.98-2.9 20.65-2.25 21.45-1.93 22.25-1.6 22.8-1.55L22.8-1.55Q24.2-1.45 24.2-0.65L24.2-0.65Q24.2-0.1 23.95 0.05 23.7 0.2 23 0.2L23 0.2 17.45-0.2 12.35 0.15Q10.5 0.15 10.5-0.65L10.5-0.65Q10.5-1.15 10.8-1.33 11.1-1.5 11.98-1.63 12.85-1.75 13.1-1.8L13.1-1.8Q14.8-2.2 15-3.8L15-3.8Q15.5-8.2 15.5-22.7L15.5-22.7 15.45-31.65Q15.45-32.6 14.9-32.83 14.35-33.05 11.25-33.05 8.15-33.05 6.38-32.85 4.6-32.65 4.3-32.48 4-32.3 3.58-31.75 3.15-31.2 2.88-30.48 2.6-29.75 2.5-29.3L2.5-29.3Q2.35-28.15 1.55-28.15L1.55-28.15Q1-28.15 1-29L1-29Q1-31 1.25-32.63 1.5-34.25 1.53-34.5 1.55-34.75 1.58-34.83 1.6-34.9 1.63-35.08 1.65-35.25 1.7-35.33 1.75-35.4 1.83-35.52 1.9-35.65 2-35.7 2.1-35.75 2.25-35.8L2.25-35.8Q2.55-35.9 3.2-35.9ZM43.45 0.75L43.45 0.75Q37.55 0.75 37.55-4.25L37.55-4.25Q37.55-7.85 40.55-9.2L40.55-9.2Q43.05-10.25 48.2-11.1L48.2-11.1Q48.35-11.15 48.6-11.18 48.85-11.2 49.12-11.25 49.4-11.3 49.55-11.35L49.55-11.35Q49.9-11.5 49.9-12.05L49.9-12.05 50-14.65Q50-17.5 48.35-18.78 46.7-20.05 45.15-20.05L45.15-20.05Q41.55-20.05 41.55-17.05L41.55-17.05 41.75-15.25Q41.75-14.25 40.85-14.25L40.85-14.25Q40.15-14.25 39.3-14.5L39.3-14.5Q37.75-15 37.75-16.2L37.75-16.2Q37.75-18.15 40.37-19.93 43-21.7 45.65-21.7 48.3-21.7 49.8-21.2 51.3-20.7 52.02-20.08 52.75-19.45 53.15-18.4L53.15-18.4Q53.65-17.15 53.65-14.48 53.65-11.8 53.52-9.73 53.4-7.65 53.4-5.95 53.4-4.25 53.8-3.18 54.2-2.1 54.75-1.8 55.3-1.5 55.85-1.45L55.85-1.45Q57.2-1.35 57.2-0.65L57.2-0.65Q57.2 0.4 54.05 0.4L54.05 0.4Q52.75 0.4 51.82-0.3 50.9-1 50.5-1.68 50.1-2.35 50.05-2.35 50-2.35 49.65-2.02 49.3-1.7 48.67-1.25 48.05-0.8 47.25-0.35L47.25-0.35Q45.4 0.75 43.45 0.75ZM49.55-10.4L49.55-10.4 49.05-10.3Q47.9-10.1 47.6-10.05 47.3-10 46.2-9.75 45.1-9.5 44.67-9.3 44.25-9.1 43.47-8.68 42.7-8.25 42.35-7.8L42.35-7.8Q41.45-6.4 41.45-4.85 41.45-3.3 42.45-2.27 43.45-1.25 45.02-1.25 46.6-1.25 47.52-1.65 48.45-2.05 48.9-2.55 49.35-3.05 49.6-3.9L49.6-3.9Q49.9-4.85 49.9-6.35L49.9-6.35 49.9-9.95Q49.9-10.4 49.55-10.4ZM74.6-20.05L74.6-20.05 74.8-17.05Q74.8-16.2 74.6-15.9 74.4-15.6 74.02-15.6 73.65-15.6 73.22-16.32 72.8-17.05 72.27-17.9 71.75-18.75 70.57-19.48 69.4-20.2 67.9-20.2 66.4-20.2 65.45-19.48 64.5-18.75 64.5-17.9 64.5-17.05 64.65-16.53 64.8-16 65.17-15.6 65.55-15.2 65.82-14.93 66.1-14.65 66.75-14.35 67.4-14.05 67.72-13.93 68.05-13.8 68.8-13.5L68.8-13.5Q73.35-11.9 74.65-10.38 75.95-8.85 75.95-6 75.95-3.15 73.3-0.75L73.3-0.75Q71.5 0.8 68.35 0.8L68.35 0.8Q66.2 0.8 63.55-0.25L63.55-0.25Q62.8-0.55 62.67-0.58 62.55-0.6 62.27-0.7 62-0.8 61.87-0.83 61.75-0.85 61.55-0.95 61.35-1.05 61.27-1.13 61.2-1.2 61.1-1.35L61.1-1.35Q60.95-1.6 60.95-2.15L60.95-2.15 60.95-6.5Q60.95-7.05 61.17-7.43 61.4-7.8 61.8-7.8 62.2-7.8 62.37-7.58 62.55-7.35 62.7-6.65 62.85-5.95 63-5.65L63-5.65Q64.85-1.05 68.2-1.05L68.2-1.05Q69.75-1.05 71.15-1.88 72.55-2.7 72.55-4.48 72.55-6.25 71.4-7.35 70.25-8.45 68.6-9.08 66.95-9.7 65.3-10.38 63.65-11.05 62.5-12.38 61.35-13.7 61.35-15.7L61.35-15.7Q61.35-18.5 63.6-20.2 65.85-21.9 68.55-21.9 71.25-21.9 72.65-21.48 74.05-21.05 74.32-20.7 74.6-20.35 74.6-20.05ZM79.84-33.95L79.84-33.95 78.84-33.9Q77.84-33.9 77.84-34.45 77.84-35 80.29-35.75L80.29-35.75Q80.64-35.85 81.12-36 81.59-36.15 81.69-36.18 81.79-36.2 82.07-36.3 82.34-36.4 82.37-36.43 82.39-36.45 82.62-36.55 82.84-36.65 82.94-36.73 83.04-36.8 83.34-36.98 83.64-37.15 84.32-37.58 84.99-38 85.64-38 86.29-38 86.29-37.05L86.29-37.05Q86.29-36.95 86.24-36.48 86.19-36 86.12-35.08 86.04-34.15 85.99-32.8L85.99-32.8Q85.84-28.85 85.84-24.4L85.84-24.4Q85.84-24.4 85.69-14.15L85.69-14.15 85.69-13.1Q85.69-11 85.89-11L85.89-11Q86.34-11 86.82-11.5 87.29-12 87.49-12.15L87.49-12.15Q94.49-17.75 94.49-18.45 94.49-19.15 93.37-19.6 92.24-20.05 92.24-20.45L92.24-20.45Q92.24-20.95 92.84-20.95L92.84-20.95 93.74-20.9 101.09-21.15Q102.39-21.15 102.39-20.75 102.39-20.35 102.09-20.2 101.79-20.05 101.29-20L101.29-20Q99.64-19.75 97.59-18.35L97.59-18.35Q97.44-18.25 97.27-18.1 97.09-17.95 96.62-17.6 96.14-17.25 95.49-16.75 94.84-16.25 93.09-14.93 91.34-13.6 90.94-13.25 90.54-12.9 90.54-12.5 90.54-12.1 91.09-11.35L91.09-11.35Q95.64-5.8 98.89-2.95L98.89-2.95Q100.24-1.75 101.62-1.4 102.99-1.05 103.59-1.05 104.19-1.05 104.19-0.6L104.19-0.6Q104.19 0 103.77 0.13 103.34 0.25 102.14 0.25L102.14 0.25 96.94 0.2Q95.69 0.2 89.09-7.95L89.09-7.95Q87.79-9.55 87.67-9.75 87.54-9.95 87.12-9.95 86.69-9.95 86.17-9.25 85.64-8.55 85.64-7.65L85.64-7.65 85.69-6.8Q85.69-3.2 86.09-2.7L86.09-2.7Q86.14-2.65 86.57-2.08 86.99-1.5 88.67-1.2 90.34-0.9 90.34-0.45L90.34-0.45Q90.34 0.35 88.79 0.35L88.79 0.35 83.94 0.05 80.29 0.25Q79.09 0.25 79.09-0.35L79.09-0.35Q79.09-0.85 80.34-1.2L80.34-1.2Q81.49-1.65 81.79-2.5 82.09-3.35 82.09-5.8L82.09-5.8 82.14-8 82.19-30.2Q82.19-33.95 79.84-33.95ZM116.59 0.3L113.04 0.2 109.49 0.3Q107.49 0.3 107.49-0.38 107.49-1.05 108.24-1.3L108.24-1.3Q108.29-1.3 108.44-1.35L108.44-1.35Q109.59-1.75 109.94-2.55 110.29-3.35 110.29-10.3L110.29-10.3 110.29-14.7Q110.29-16.15 109.94-17 109.59-17.85 109.29-18.05 108.99-18.25 108.27-18.38 107.54-18.5 107.22-18.63 106.89-18.75 106.89-19.03 106.89-19.3 107.02-19.45 107.14-19.6 107.52-19.78 107.89-19.95 108.29-20.1L108.29-20.1Q109.69-20.5 110.59-20.9 111.49-21.3 111.97-21.5 112.44-21.7 112.59-21.8L112.59-21.8Q112.94-21.95 113.44-21.95L113.44-21.95Q114.19-21.95 114.19-21L114.19-21 113.89-18.6 113.89-4.9Q113.89-3.4 114.37-2.55 114.84-1.7 115.37-1.5 115.89-1.3 116.59-1.25 117.29-1.2 117.49-1.2L117.49-1.2Q118.19-1.1 118.19-0.5L118.19-0.5Q118.19 0.35 117.34 0.35L117.34 0.35 116.59 0.3ZM112.19-26.65Q111.19-26.65 110.47-27.7 109.74-28.75 109.74-29.43 109.74-30.1 110.62-31.18 111.49-32.25 112.27-32.25 113.04-32.25 113.79-31.23 114.54-30.2 114.54-29.4 114.54-28.6 113.59-27.63 112.64-26.65 112.19-26.65L112.19-26.65ZM123.84-18.75L123.84-18.75 121.84-18.6Q120.74-18.6 120.74-19.25L120.74-19.25Q120.74-20.15 121.16-20.45 121.59-20.75 122.84-20.75L122.84-20.75 123.89-20.75Q124.49-20.75 124.64-21.03 124.79-21.3 124.79-21.9L124.79-21.9Q124.79-25.55 125.99-28.63 127.19-31.7 128.99-33.5L128.99-33.5Q132.69-37.35 135.79-37.35L135.79-37.35Q136.94-37.35 137.66-36.98 138.39-36.6 138.39-35.95L138.39-35.95Q138.39-35.75 138.21-35.08 138.04-34.4 137.99-34.2 137.94-34 137.89-33.88 137.84-33.75 137.79-33.6 137.74-33.45 137.69-33.38 137.64-33.3 137.56-33.2 137.49-33.1 137.39-33.05L137.39-33.05Q137.24-32.95 136.99-32.95 136.74-32.95 136.49-33.3L136.49-33.3Q135.74-34.25 133.81-34.25 131.89-34.25 130.81-33.2 129.74-32.15 129.19-30.4L129.19-30.4Q128.14-27 128.14-22.9L128.14-22.9 128.14-21.65Q128.14-20.7 128.74-20.7L128.74-20.7Q133.14-20.7 134.09-21.4L134.09-21.4Q134.44-21.6 134.64-21.6 134.84-21.6 134.84-21.08 134.84-20.55 134.14-19.3L134.14-19.3Q133.84-18.85 132.89-18.85L132.89-18.85 128.99-18.8Q128.19-18.8 128.19-18.3L128.19-18.3 128.19-15.4 128.44-5.5Q128.44-2.85 129.14-2L129.14-2Q129.94-0.95 131.59-0.95L131.59-0.95Q132.44-0.95 132.44-0.2L132.44-0.2Q132.44 0.3 131.89 0.3L131.89 0.3 126.89 0.05 123.19 0.3Q122.44 0.3 122.44-0.4L122.44-0.4Q122.44-0.65 123.06-0.9 123.69-1.15 124.29-1.83 124.89-2.5 124.89-3.35 124.89-4.2 124.84-5.8L124.84-5.8Q124.69-10.7 124.69-17.95L124.69-17.95Q124.69-18.5 124.51-18.63 124.34-18.75 123.84-18.75ZM146.89 9.5L146.74 9.5 144.59 9.55Q143.64 9.55 143.64 8.9L143.64 8.9Q143.64 8.75 144.76 7.35 145.89 5.95 147.04 3.9 148.19 1.85 148.19 0.28 148.19-1.3 145.34-7.5 142.49-13.7 140.39-17.65L140.39-17.65Q139.84-18.65 139.26-19.2 138.69-19.75 138.34-19.8L138.34-19.8Q137.54-19.9 137.54-20.55 137.54-21.2 138.54-21.2L138.54-21.2 143.89-21.1 146.74-21.2Q147.09-21.2 147.36-21.03 147.64-20.85 147.64-20.65L147.64-20.65Q147.64-19.75 146.44-19.75L146.44-19.75 145.69-19.75Q144.89-19.75 144.89-18.5L144.89-18.5Q144.89-17 147.54-11.3L147.54-11.3Q147.94-10.45 148.74-8.6L148.74-8.6Q150.24-5.2 150.54-5.2 150.84-5.2 152.86-10.95 154.89-16.7 154.89-17.8 154.89-18.9 154.41-19.35 153.94-19.8 153.34-19.8L153.34-19.8Q151.79-19.7 151.79-20.65L151.79-20.65Q151.79-21.25 152.74-21.25L152.74-21.25 156.34-21.2 159.44-21.25Q160.49-21.25 160.49-20.6L160.49-20.6Q160.49-20.1 159.61-19.88 158.74-19.65 158.44-19.25L158.44-19.25Q157.64-18.1 155.74-12.95L155.74-12.95 151.29-1.1Q150.74 0.35 150.19 1.88 149.64 3.4 149.29 4.35 148.94 5.3 148.59 6.25 148.24 7.2 148.04 7.73 147.84 8.25 147.64 8.7L147.64 8.7Q147.24 9.5 146.89 9.5L146.89 9.5Z" fill="#4a596d" data-fill-palette-color="primary"></path></g></svg></g></svg></g><g transform="matrix(1,0,0,1,163.310208,149.8829894659961)"><svg viewBox="0 0 232.209792 24.608178918745708" height="24.608178918745708" width="232.209792"><g transform="matrix(1,0,0,1,0,0)"><svg width="232.209792" viewBox="1.12 -34.08 426.61 45.21" height="24.608178918745708" data-palette-color="#aab7c0"><path d="M12.45 10.74L1.42 10.74 1.32 8.98 4.35 8.25Q4.35 8.01 4.37 7.42 4.39 6.84 4.42 5.83 4.44 4.83 4.49 3.47 4.54 2.1 4.54 0.29L4.54 0.29 4.64-11.77Q4.64-13.23 4.52-14.77 4.39-16.31 4.25-17.19L4.25-17.19 1.12-17.87 1.12-19.48 7.67-21.29 8.5-20.51 8.25-17.82 8.4-17.82Q9.77-19.58 11.4-20.48 13.04-21.39 14.94-21.39L14.94-21.39Q17.63-21.39 19.7-20.04 21.78-18.7 22.97-16.36 24.17-14.01 24.17-11.04L24.17-11.04Q24.17-7.76 22.71-5.2 21.24-2.64 18.73-1.15 16.21 0.34 13.04 0.34L13.04 0.34Q11.87 0.34 10.62 0.12 9.38-0.1 8.35-0.49L8.35-0.49 8.35 3.17Q8.35 5.03 8.42 6.32 8.5 7.62 8.54 8.25L8.54 8.25 12.55 8.89 12.45 10.74ZM13.18-2.05L13.18-2.05Q15.19-2.05 16.65-3 18.12-3.96 18.97-5.76 19.82-7.57 19.87-10.11L19.87-10.11Q19.92-12.45 19.09-14.26 18.26-16.06 16.85-17.11 15.43-18.16 13.57-18.16L13.57-18.16Q12.01-18.16 10.72-17.46 9.42-16.75 8.35-15.38L8.35-15.38 8.35-3.56Q9.28-2.83 10.57-2.44 11.87-2.05 13.18-2.05ZM39.11 0L27.83 0 27.68-1.76 30.71-2.49Q30.76-2.73 30.81-3.34 30.86-3.96 30.88-5.05 30.91-6.15 30.91-7.71L30.91-7.71 30.95-11.52Q30.95-13.13 30.83-14.72 30.71-16.31 30.56-17.19L30.56-17.19 27.44-17.87 27.44-19.48 33.98-21.29 34.67-20.61 34.47-16.5 34.62-16.46Q36.08-19.29 37.57-20.29 39.06-21.29 40.43-21.29L40.43-21.29Q41.55-21.29 42.31-20.7 43.06-20.12 43.06-19.04L43.06-19.04Q43.06-17.92 42.26-17.29 41.45-16.65 40.23-16.65L40.23-16.65Q39.35-16.65 38.55-17.04 37.74-17.43 37.01-18.12L37.01-18.12 37.89-17.82Q37.01-17.24 36.18-16.16 35.35-15.09 34.62-13.57L34.62-13.57 34.67-9.03Q34.71-7.81 34.76-6.52 34.81-5.22 34.86-4.13 34.91-3.03 34.96-2.49L34.96-2.49 39.21-1.86 39.11 0ZM55.46 0.39L55.46 0.39Q52.29 0.39 49.92-0.98 47.55-2.34 46.24-4.81 44.92-7.28 44.92-10.45L44.92-10.45Q44.92-13.77 46.36-16.21 47.8-18.65 50.26-20.02 52.73-21.39 55.66-21.39L55.66-21.39Q58.69-21.39 60.93-20.04 63.18-18.7 64.45-16.28 65.72-13.87 65.72-10.64L65.72-10.64Q65.72-7.57 64.35-5.05 62.98-2.54 60.66-1.07 58.34 0.39 55.46 0.39ZM55.95-1.9L55.95-1.9Q57.61-1.9 58.83-2.91 60.05-3.91 60.74-5.69 61.42-7.47 61.42-9.77L61.42-9.77Q61.42-13.96 59.69-16.58 57.95-19.19 55.12-19.19L55.12-19.19Q52.49-19.19 50.9-17.02 49.31-14.84 49.31-11.18L49.31-11.18Q49.31-8.45 50.17-6.35 51.02-4.25 52.53-3.08 54.05-1.9 55.95-1.9ZM92.81-1.03L86.42 0.54 85.69-0.1 85.73-3.27 85.59-3.32Q84.17-1.27 82.61-0.44 81.05 0.39 79.34 0.39L79.34 0.39Q76.56 0.39 74.36-0.93 72.16-2.25 70.92-4.52 69.67-6.79 69.67-9.77L69.67-9.77Q69.67-12.35 70.55-14.5 71.43-16.65 72.97-18.19 74.5-19.73 76.46-20.56 78.41-21.39 80.51-21.39L80.51-21.39Q81.83-21.39 83.27-21.04 84.71-20.7 85.69-19.97L85.69-19.97Q85.69-20.85 85.66-22.27 85.64-23.68 85.61-25.22 85.59-26.76 85.56-27.95 85.54-29.15 85.49-29.59L85.49-29.59 81.68-30.27 81.58-31.88 88.76-33.89 89.64-33.2Q89.54-30.18 89.49-27.34 89.45-24.51 89.45-21.44L89.45-21.44 89.4-10.21Q89.4-7.71 89.52-5.93 89.64-4.15 89.69-3.42L89.69-3.42 92.81-2.64 92.81-1.03ZM80.56-2.88L80.56-2.88Q81.93-2.88 83.17-3.49 84.42-4.1 85.69-5.66L85.69-5.66 85.69-16.16Q84.76-17.82 83.34-18.51 81.93-19.19 80.51-19.19L80.51-19.19Q77.43-19.19 75.7-16.92 73.97-14.65 73.97-11.04L73.97-11.04Q73.97-7.13 75.9-5 77.82-2.88 80.56-2.88ZM116.25-3.42L116.25-3.42 119.33-2.64 119.33-1.03 112.98 0.54 112.25-0.1 112.29-3.17 112.15-3.22Q110.73-1.22 109.24-0.42 107.75 0.39 106.04 0.39L106.04 0.39Q102.77 0.39 100.58-1.64 98.38-3.66 98.38-7.71L98.38-7.71 98.38-11.91Q98.38-13.23 98.31-14.55 98.23-15.87 98.13-17.19L98.13-17.19 94.81-17.87 94.81-19.48 101.45-21.29 102.33-20.51Q102.24-18.99 102.19-17.29 102.14-15.58 102.14-13.72L102.14-13.72 102.09-8.35Q102.09-5.32 103.51-4.03 104.92-2.73 107.12-2.73L107.12-2.73Q108.44-2.73 109.8-3.42 111.17-4.1 112.2-5.76L112.2-5.76 112.2-11.43Q112.2-12.5 112.17-13.55 112.15-14.6 112.1-15.55 112.05-16.5 111.95-17.19L111.95-17.19 108.39-17.87 108.39-19.48 115.27-21.29 116.01-20.61Q115.96-19.24 115.93-18.19 115.91-17.14 115.91-16.09 115.91-15.04 115.91-13.67L115.91-13.67 115.91-10.21Q115.91-7.52 116.03-5.88 116.15-4.25 116.25-3.42ZM132.6 0.39L132.6 0.39Q129.87 0.39 127.58-0.85 125.28-2.1 123.91-4.47 122.55-6.84 122.55-10.11L122.55-10.11Q122.55-13.28 123.99-15.82 125.43-18.36 127.92-19.87 130.41-21.39 133.58-21.39L133.58-21.39Q135.73-21.39 137.19-20.85 138.66-20.31 139.42-19.43 140.17-18.55 140.17-17.58L140.17-17.58Q140.17-16.8 139.68-16.28 139.2-15.77 138.32-15.77L138.32-15.77Q137.49-15.77 136.95-16.06 136.41-16.36 135.53-17.24L135.53-17.24 133.04-19.73 134.8-19.24Q132.85-19.68 131.04-18.87 129.24-18.07 128.06-16.09 126.89-14.11 126.89-10.99L126.89-10.99Q126.89-7.08 128.87-4.98 130.85-2.88 133.83-2.88L133.83-2.88Q135.68-2.88 137.02-3.56 138.37-4.25 139.59-5.76L139.59-5.76 140.91-4.64Q139.54-2.1 137.44-0.85 135.34 0.39 132.6 0.39ZM157.26-4.25L158.14-3.03Q157.21-1.42 155.6-0.51 153.99 0.39 152.23 0.39L152.23 0.39Q149.3 0.39 147.37-1.42 145.44-3.22 145.44-6.84L145.44-6.84 145.59-18.51 142.17-18.51 142.17-19.53 148.47-25.24 149.4-25.24 149.3-19.63 149.25-7.62Q149.25-5.08 150.35-3.86 151.45-2.64 153.45-2.64L153.45-2.64Q154.57-2.64 155.53-3.1 156.48-3.56 157.26-4.25L157.26-4.25ZM156.67-18.51L147.54-18.51 147.54-20.95 156.67-20.95 156.67-18.51ZM169.71 0L159.16 0 159.06-1.81 162.34-2.49Q162.38-2.69 162.41-3.17 162.43-3.66 162.48-4.74 162.53-5.81 162.53-7.71L162.53-7.71 162.53-10.94Q162.53-12.99 162.43-14.65 162.34-16.31 162.19-17.19L162.19-17.19 158.92-17.87 158.92-19.48 165.85-21.29 166.58-20.61Q166.44-19.09 166.36-17.63 166.29-16.16 166.29-14.21L166.29-14.21 166.29-8.06Q166.29-5.81 166.36-4.35 166.44-2.88 166.54-2.49L166.54-2.49 169.81-1.81 169.71 0ZM164.44-26.81L164.44-26.81Q163.17-26.81 162.29-27.64 161.41-28.47 161.41-29.69L161.41-29.69Q161.41-30.86 162.29-31.71 163.17-32.57 164.44-32.57L164.44-32.57Q165.71-32.57 166.54-31.71 167.37-30.86 167.37-29.69L167.37-29.69Q167.37-28.47 166.54-27.64 165.71-26.81 164.44-26.81ZM183.13 0.2L181.67 0.2 173.03-18.51 170.73-19.24 170.83-21 180.35-21 180.45-19.24 177.42-18.51 184.11-3.66 182.84-3.61 188.99-18.51 185.97-19.24 186.06-21 194.17-21 194.27-19.24 191.97-18.51 183.13 0.2ZM205.93 0L195.39 0 195.29-1.81 198.56-2.49Q198.61-2.69 198.63-3.17 198.66-3.66 198.71-4.74 198.76-5.81 198.76-7.71L198.76-7.71 198.76-10.94Q198.76-12.99 198.66-14.65 198.56-16.31 198.42-17.19L198.42-17.19 195.14-17.87 195.14-19.48 202.08-21.29 202.81-20.61Q202.66-19.09 202.59-17.63 202.52-16.16 202.52-14.21L202.52-14.21 202.52-8.06Q202.52-5.81 202.59-4.35 202.66-2.88 202.76-2.49L202.76-2.49 206.03-1.81 205.93 0ZM200.66-26.81L200.66-26.81Q199.39-26.81 198.51-27.64 197.63-28.47 197.63-29.69L197.63-29.69Q197.63-30.86 198.51-31.71 199.39-32.57 200.66-32.57L200.66-32.57Q201.93-32.57 202.76-31.71 203.59-30.86 203.59-29.69L203.59-29.69Q203.59-28.47 202.76-27.64 201.93-26.81 200.66-26.81ZM223.12-4.25L224-3.03Q223.07-1.42 221.46-0.51 219.85 0.39 218.09 0.39L218.09 0.39Q215.16 0.39 213.23-1.42 211.3-3.22 211.3-6.84L211.3-6.84 211.45-18.51 208.03-18.51 208.03-19.53 214.33-25.24 215.26-25.24 215.16-19.63 215.11-7.62Q215.11-5.08 216.21-3.86 217.31-2.64 219.31-2.64L219.31-2.64Q220.43-2.64 221.39-3.1 222.34-3.56 223.12-4.25L223.12-4.25ZM222.53-18.51L213.4-18.51 213.4-20.95 222.53-20.95 222.53-18.51ZM236.5-3.66L234.05 0.2 225.46-18.51 223.17-19.24 223.31-21 232.79-21 232.88-19.24 229.86-18.51 236.5-3.66ZM238.5-21L246.55-21 246.7-19.24 244.41-18.51 236.11-1.07 232.2 7.03Q231.12 9.28 229.93 10.21 228.73 11.13 227.17 11.13L227.17 11.13Q226 11.13 225.22 10.55 224.44 9.96 224.44 9.03L224.44 9.03Q224.44 8.3 225.02 7.67 225.61 7.03 226.83 6.64L226.83 6.64 231.37 5.27 229.12 7.71 234.54-2.73 235.08-3.61 241.43-18.51 238.4-19.24 238.5-21ZM265.35 0.39L265.35 0.39Q263.54 0.39 261.74-0.02 259.93-0.44 258.66-1.12L258.66-1.12 258.41-6.35 260.81-6.35 261.78-2.83Q263.4-1.66 265.69-1.66L265.69-1.66Q267.3-1.66 268.35-2.47 269.4-3.27 269.4-4.64L269.4-4.64Q269.4-5.96 268.47-6.88 267.55-7.81 264.86-8.94L264.86-8.94Q261.39-10.45 259.98-11.87 258.56-13.28 258.56-15.43L258.56-15.43Q258.56-17.19 259.61-18.53 260.66-19.87 262.52-20.63 264.37-21.39 266.81-21.39L266.81-21.39Q268.18-21.39 269.6-21.17 271.01-20.95 271.94-20.51L271.94-20.51 272.48-15.43 270.18-15.43 269.01-18.75Q268.52-19.04 267.84-19.21 267.16-19.38 266.37-19.38L266.37-19.38Q264.66-19.38 263.64-18.58 262.61-17.77 262.61-16.5L262.61-16.5Q262.61-15.04 263.74-14.14 264.86-13.23 267.69-11.91L267.69-11.91Q270.91-10.45 272.18-9.03 273.45-7.62 273.45-5.62L273.45-5.62Q273.45-2.98 271.16-1.29 268.86 0.39 265.35 0.39ZM287.95 0.39L287.95 0.39Q284.78 0.39 282.41-0.98 280.04-2.34 278.72-4.81 277.41-7.28 277.41-10.45L277.41-10.45Q277.41-13.77 278.85-16.21 280.29-18.65 282.75-20.02 285.22-21.39 288.15-21.39L288.15-21.39Q291.18-21.39 293.42-20.04 295.67-18.7 296.94-16.28 298.21-13.87 298.21-10.64L298.21-10.64Q298.21-7.57 296.84-5.05 295.47-2.54 293.15-1.07 290.83 0.39 287.95 0.39ZM288.44-1.9L288.44-1.9Q290.1-1.9 291.32-2.91 292.54-3.91 293.23-5.69 293.91-7.47 293.91-9.77L293.91-9.77Q293.91-13.96 292.18-16.58 290.44-19.19 287.61-19.19L287.61-19.19Q284.97-19.19 283.39-17.02 281.8-14.84 281.8-11.18L281.8-11.18Q281.8-8.45 282.66-6.35 283.51-4.25 285.02-3.08 286.54-1.9 288.44-1.9ZM312.8-1.86L312.71 0 301.92 0 301.77-1.76 304.8-2.49Q304.85-2.98 304.87-3.54 304.89-4.1 304.89-4.91 304.89-5.71 304.89-6.86 304.89-8.01 304.89-9.67L304.89-9.67 304.85-18.46 304.85-24.02Q304.85-27.15 305.82-29.39 306.8-31.64 308.56-32.86 310.31-34.08 312.66-34.08L312.66-34.08Q314.61-34.08 315.95-33.2 317.3-32.32 317.3-31.05L317.3-31.05Q317.3-30.37 316.86-29.96 316.42-29.54 315.69-29.54L315.69-29.54Q314.46-29.54 313.39-30.62L313.39-30.62 311.14-32.76 312.32-32.47Q310.51-32.47 309.53-30.62 308.56-28.76 308.56-25.39L308.56-25.39 308.56-20.9 308.61-18.46 308.65-10.06Q308.65-7.91 308.7-5.79 308.75-3.66 308.8-2.49L308.8-2.49 312.8-1.86ZM313.98-18.46L301.33-18.46 301.33-20.07 304.85-20.9 308.46-20.9 313.98-20.9 313.98-18.46ZM330.97-4.25L331.84-3.03Q330.92-1.42 329.31-0.51 327.69 0.39 325.94 0.39L325.94 0.39Q323.01 0.39 321.08-1.42 319.15-3.22 319.15-6.84L319.15-6.84 319.3-18.51 315.88-18.51 315.88-19.53 322.18-25.24 323.1-25.24 323.01-19.63 322.96-7.62Q322.96-5.08 324.06-3.86 325.16-2.64 327.16-2.64L327.16-2.64Q328.28-2.64 329.23-3.1 330.18-3.56 330.97-4.25L330.97-4.25ZM330.38-18.51L321.25-18.51 321.25-20.95 330.38-20.95 330.38-18.51ZM357.33 0.2L355.82 0.2 348.35-18.51 345.86-19.24 345.95-21 354.94-21 355.04-19.24 352.5-18.51 358.16-3.66 356.94-3.61 362.75-18.51 360.21-19.24 360.31-21 367.88-21 367.98-19.24 365.68-18.51 357.33 0.2ZM343.12 0.2L341.61 0.2 333.7-18.51 331.4-19.24 331.5-21 340.53-21 340.63-19.24 338.14-18.51 344.2-3.66 342.73-3.61 349.18-18.95 350.49-15.92 343.12 0.2ZM377.2 0.39L377.2 0.39Q375.25 0.39 373.73-0.39 372.22-1.17 371.37-2.39 370.51-3.61 370.51-4.93L370.51-4.93Q370.51-6.54 371.56-7.62 372.61-8.69 375.1-9.52L375.1-9.52 382.52-12.01 382.52-14.5Q382.52-15.72 381.79-16.72 381.06-17.72 379.84-18.31 378.62-18.9 377.1-18.9L377.1-18.9Q375.88-18.9 375.44-18.38 375-17.87 374.91-16.36L374.91-16.36 374.81-14.31Q373.05-13.92 371.83-14.43 370.61-14.94 370.61-16.11L370.61-16.11Q370.61-16.94 371.34-17.77 372.07-18.6 373.25-19.36 374.42-20.12 375.76-20.65 377.1-21.19 378.42-21.39L378.42-21.39Q381.99-21.39 384.18-19.51 386.38-17.63 386.43-14.5L386.43-14.5 386.33-6.3Q386.33-5.42 386.41-4.52 386.48-3.61 386.62-3.17L386.62-3.17 389.75-2.59 389.75-1.07 387.36-0.2Q386.67 0.1 386.09 0.24 385.5 0.39 385.11 0.39L385.11 0.39Q383.6 0.39 383.16-1.32L383.16-1.32 382.62-3.22 383.35-3.22Q381.74-1.42 380.25-0.51 378.76 0.39 377.2 0.39ZM378.52-2.49L378.52-2.49Q379.64-2.49 380.64-3 381.64-3.52 382.52-4.59L382.52-4.59 382.52-9.72 377.05-8.25Q375.88-7.96 375.37-7.32 374.86-6.69 374.86-5.71L374.86-5.71Q374.86-4.49 375.96-3.49 377.05-2.49 378.52-2.49ZM403.66 0L392.38 0 392.24-1.76 395.27-2.49Q395.31-2.73 395.36-3.34 395.41-3.96 395.44-5.05 395.46-6.15 395.46-7.71L395.46-7.71 395.51-11.52Q395.51-13.13 395.39-14.72 395.27-16.31 395.12-17.19L395.12-17.19 391.99-17.87 391.99-19.48 398.54-21.29 399.22-20.61 399.02-16.5 399.17-16.46Q400.64-19.29 402.13-20.29 403.61-21.29 404.98-21.29L404.98-21.29Q406.1-21.29 406.86-20.7 407.62-20.12 407.62-19.04L407.62-19.04Q407.62-17.92 406.81-17.29 406.01-16.65 404.79-16.65L404.79-16.65Q403.91-16.65 403.1-17.04 402.3-17.43 401.56-18.12L401.56-18.12 402.44-17.82Q401.56-17.24 400.73-16.16 399.9-15.09 399.17-13.57L399.17-13.57 399.22-9.03Q399.27-7.81 399.32-6.52 399.37-5.22 399.42-4.13 399.46-3.03 399.51-2.49L399.51-2.49 403.76-1.86 403.66 0ZM419.58 0.39L419.58 0.39Q416.75 0.39 414.45-0.88 412.16-2.15 410.84-4.52 409.52-6.88 409.52-10.11L409.52-10.11Q409.52-13.57 410.94-16.11 412.35-18.65 414.65-20.04 416.94-21.44 419.58-21.39L419.58-21.39Q423.39-21.34 425.54-18.87 427.68-16.41 427.68-11.82L427.68-11.82 427.68-10.94 412.69-10.94 412.69-13.09 424.46-13.09 423.92-12.45 423.92-13.48Q423.92-16.26 422.68-17.8 421.43-19.34 419.19-19.34L419.19-19.34Q417.82-19.34 416.55-18.53 415.28-17.72 414.5-16.09 413.72-14.45 413.72-11.96L413.72-11.96 413.72-11.38Q413.72-7.37 415.7-5.13 417.67-2.88 420.8-2.88L420.8-2.88Q422.56-2.88 423.9-3.54 425.24-4.2 426.51-5.76L426.51-5.76 427.73-4.64Q426.37-2.1 424.27-0.85 422.17 0.39 419.58 0.39Z" opacity="1" transform="matrix(1,0,0,1,0,0)" fill="#aab7c0" class="slogan-text-1" data-fill-palette-color="secondary" id="text-1"></path></svg></g></svg></g></svg></g></svg></g><g transform="matrix(1,0,0,1,463.7068719331479,0)"><svg viewBox="0 0 165.79652179369054 241.1467947077132" height="241.1467947077132" width="165.79652179369054"><g><svg xmlns="http://www.w3.org/2000/svg" xmlns:xlink="http://www.w3.org/1999/xlink" version="1.0" x="0" y="0" viewBox="22.499 10.000999665009918 55.001999999999995 79.99900033499009" enable-background="new 0 0 100 100" xml:space="preserve" height="241.1467947077132" width="165.79652179369054" class="icon-icon-0" data-fill-palette-color="accent" id="icon-0"><polygon fill="none" stroke="#4A596D" stroke-linecap="round" stroke-linejoin="round" stroke-miterlimit="10" points="65.002,82.5   65.002,75 72.502,75 "></polygon><circle fill="none" stroke="#4A596D" stroke-linecap="round" stroke-linejoin="round" stroke-miterlimit="10" cx="36.25" cy="37.501" r="3.8"></circle><polygon fill="none" stroke="#4A596D" stroke-linecap="round" stroke-linejoin="round" stroke-miterlimit="10" points="32.5,33.751   36.249,37.501 42.498,31.25 36.249,37.501 "></polygon><polygon fill="none" stroke="#4A596D" stroke-linecap="round" stroke-linejoin="round" stroke-miterlimit="10" points="32.5,48.751   36.249,52.501 42.498,46.25 36.249,52.501 "></polygon><polygon fill="none" stroke="#4A596D" stroke-linecap="round" stroke-linejoin="round" stroke-miterlimit="10" points="32.5,63.75   36.249,67.5 42.498,61.25 36.249,67.5 "></polygon><path fill="none" stroke="#4A596D" stroke-linecap="round" stroke-linejoin="round" stroke-miterlimit="10" d="M47.5 33.751h15H47.5z"></path><path fill="none" stroke="#4A596D" stroke-linecap="round" stroke-linejoin="round" stroke-miterlimit="10" d="M47.5 37.501h20H47.5z"></path><path fill="none" stroke="#4A596D" stroke-linecap="round" stroke-linejoin="round" stroke-miterlimit="10" d="M47.5 41.251h10.001H47.5z"></path><circle fill="none" stroke="#4A596D" stroke-linecap="round" stroke-linejoin="round" stroke-miterlimit="10" cx="36.25" cy="52.501" r="3.8"></circle><path fill="none" stroke="#4A596D" stroke-linecap="round" stroke-linejoin="round" stroke-miterlimit="10" d="M47.5 48.751h20H47.5z"></path><path fill="none" stroke="#4A596D" stroke-linecap="round" stroke-linejoin="round" stroke-miterlimit="10" d="M47.5 52.501h10.001H47.5z"></path><path fill="none" stroke="#4A596D" stroke-linecap="round" stroke-linejoin="round" stroke-miterlimit="10" d="M47.5 56.251h15H47.5z"></path><circle fill="none" stroke="#4A596D" stroke-linecap="round" stroke-linejoin="round" stroke-miterlimit="10" cx="36.25" cy="67.5" r="3.8"></circle><path fill="none" stroke="#4A596D" stroke-linecap="round" stroke-linejoin="round" stroke-miterlimit="10" d="M47.5 63.75h10.001H47.5z"></path><path fill="none" stroke="#4A596D" stroke-linecap="round" stroke-linejoin="round" stroke-miterlimit="10" d="M47.5 67.5h20H47.5z"></path><path fill="none" stroke="#4A596D" stroke-linecap="round" stroke-linejoin="round" stroke-miterlimit="10" d="M47.5 71.25h15H47.5z"></path><path fill="none" stroke="#4A596D" stroke-linecap="round" stroke-linejoin="round" stroke-miterlimit="10" d="M51.876 14.999c0 1.037-0.841 1.876-1.874 1.876-1.037 0-1.878-0.839-1.878-1.876 0-1.035 0.841-1.874 1.878-1.874C51.035 13.125 51.876 13.964 51.876 14.999z"></path><path fill="none" stroke="#4A596D" stroke-linecap="round" stroke-linejoin="round" stroke-miterlimit="10" d="M60.003 16.25h-5.178c0.104-0.401 0.176-0.816 0.176-1.25 0-2.761-2.239-4.999-4.999-4.999C47.239 10 45 12.238 45 14.999c0 0.434 0.076 0.849 0.179 1.25H40c-1.381 0-2.501 1.12-2.501 2.5v7.502h25.002v-7.5C62.501 17.369 61.381 16.25 60.003 16.25z"></path><polygon fill="none" stroke="#4A596D" stroke-linecap="round" stroke-linejoin="round" stroke-miterlimit="10" points="  62.501,22.499 62.501,26.251 37.499,26.251 37.499,22.499 27.498,22.499 27.498,82.5 65.002,82.5 72.502,75 72.502,22.499 "></polygon><path fill="none" stroke="#4A596D" stroke-linecap="round" stroke-linejoin="round" stroke-miterlimit="10" d="M29.999 90c-4.141 0-7.5-3.357-7.5-7.5V18.749h15v7.502h25.002v-7.5-0.001h15V82.5v-0.002c0 4.142-3.355 7.5-7.5 7.5L29.999 90z"></path></svg></g></svg></g></svg></g><defs></defs></svg><rect width="395.52" height="151.51368712744775" fill="none" stroke="none" visibility="hidden"></rect></g></svg></g></svg>